<!DOCTYPE svg PUBLIC "-//W3C//DTD SVG 1.1//EN" "http://www.w3.org/Graphics/SVG/1.1/DTD/svg11.dtd">
<!-- Uploaded to: SVG Repo, www.svgrepo.com, Transformed by: SVG Repo Mixer Tools -->
<svg fill="#ffffff" version="1.1" id="Capa_1" xmlns="http://www.w3.org/2000/svg" xmlns:xlink="http://www.w3.org/1999/xlink" width="115px" height="115px" viewBox="0 0 32.68 32.68" xml:space="preserve" stroke="#ffffff" stroke-width="0.00032680000000000003">
<g id="SVGRepo_bgCarrier" stroke-width="0"/>
<g id="SVGRepo_tracerCarrier" stroke-linecap="round" stroke-linejoin="round"/>
<g id="SVGRepo_iconCarrier"> <g> <path d="M7.679,16.34l-3.84,5.226L0,16.34h2.339c0-7.72,6.281-14.001,14.001-14.001v3c-6.066,0-11.001,4.935-11.001,11.001H7.679z M28.841,11.116l-3.84,5.225h2.34c0,6.064-4.935,11-11.001,11v3c7.721,0,14.001-6.279,14.001-14h2.339L28.841,11.116z M16.428,8.978c0-3.038,2.462-5.5,5.5-5.5c3.037,0,5.5,2.462,5.5,5.5c0,3.037-2.463,5.5-5.5,5.5 C18.89,14.478,16.428,12.015,16.428,8.978z M19.238,5.926l0.975,1.73h-0.766V8.51h1.227l0.43,0.742h-1.654v0.854h1.852v1.922h1.158 v-1.922h1.943V9.252H22.67l0.445-0.742h1.287V7.656h-0.805l1.02-1.73h-1.354L21.91,8.515h-0.035l-1.318-2.589H19.238z M17.324,22.655c0,3.037-2.463,5.5-5.5,5.5c-3.038,0-5.5-2.463-5.5-5.5c0-3.039,2.462-5.5,5.5-5.5 C14.861,17.155,17.324,19.616,17.324,22.655z M14.334,23.446h-1.052l0.008,0.246c0.011,0.358-0.066,0.597-0.23,0.711 c-0.154,0.108-0.492,0.162-1.015,0.162c-0.588,0-0.94-0.097-1.056-0.291c-0.06-0.1-0.104-0.3-0.134-0.599h1.586l0.101-0.679h-1.723 c-0.006-0.197-0.008-0.396-0.008-0.6v-0.08h1.832l0.101-0.681h-1.905c0.03-0.337,0.087-0.556,0.17-0.655 c0.133-0.158,0.495-0.238,1.088-0.238c0.442,0,0.727,0.035,0.854,0.104c0.188,0.104,0.284,0.353,0.284,0.74v0.144h1.051 l-0.004-0.125c-0.024-0.725-0.156-1.192-0.396-1.408c-0.262-0.234-0.787-0.353-1.577-0.353c-1.03,0-1.714,0.144-2.051,0.431 c-0.281,0.235-0.445,0.689-0.493,1.361H9.416l-0.101,0.68h0.433c0.003,0.252,0.008,0.478,0.017,0.681H9.416l-0.101,0.679h0.497 c0.063,0.629,0.166,1.046,0.312,1.254c0.251,0.356,0.895,0.534,1.93,0.534c0.887,0,1.465-0.088,1.735-0.263 c0.363-0.234,0.546-0.756,0.546-1.565L14.334,23.446L14.334,23.446z"/> </g> </g>
</svg>